<mxfile host="app.diagrams.net" agent="Mozilla/5.0 (Windows NT 10.0; Win64; x64) AppleWebKit/537.36 (KHTML, like Gecko) Chrome/127.0.0.0 Safari/537.36" version="24.7.5">
  <diagram name="Page-1" id="r-Iut4U8kY-lTG84cQXH">
    <mxGraphModel dx="1900" dy="583" grid="1" gridSize="10" guides="1" tooltips="1" connect="1" arrows="1" fold="1" page="1" pageScale="1" pageWidth="850" pageHeight="1100" math="0" shadow="0">
      <root>
        <mxCell id="0" />
        <mxCell id="1" parent="0" />
        <mxCell id="JlN0RR8S-dvaQLJfnXvA-5" style="edgeStyle=orthogonalEdgeStyle;rounded=0;orthogonalLoop=1;jettySize=auto;html=1;entryX=0;entryY=0.5;entryDx=0;entryDy=0;flowAnimation=1;" edge="1" parent="1" source="JlN0RR8S-dvaQLJfnXvA-1" target="JlN0RR8S-dvaQLJfnXvA-2">
          <mxGeometry relative="1" as="geometry" />
        </mxCell>
        <mxCell id="JlN0RR8S-dvaQLJfnXvA-6" style="edgeStyle=orthogonalEdgeStyle;rounded=0;orthogonalLoop=1;jettySize=auto;html=1;entryX=0;entryY=0.5;entryDx=0;entryDy=0;flowAnimation=1;" edge="1" parent="1" source="JlN0RR8S-dvaQLJfnXvA-1" target="JlN0RR8S-dvaQLJfnXvA-3">
          <mxGeometry relative="1" as="geometry" />
        </mxCell>
        <mxCell id="JlN0RR8S-dvaQLJfnXvA-7" style="edgeStyle=orthogonalEdgeStyle;rounded=0;orthogonalLoop=1;jettySize=auto;html=1;flowAnimation=1;" edge="1" parent="1" source="JlN0RR8S-dvaQLJfnXvA-1" target="JlN0RR8S-dvaQLJfnXvA-4">
          <mxGeometry relative="1" as="geometry" />
        </mxCell>
        <mxCell id="JlN0RR8S-dvaQLJfnXvA-1" value="" style="rounded=0;whiteSpace=wrap;html=1;fillColor=#d5e8d4;gradientColor=#97d077;strokeColor=#82b366;" vertex="1" parent="1">
          <mxGeometry x="140" y="110" width="340" height="220" as="geometry" />
        </mxCell>
        <mxCell id="JlN0RR8S-dvaQLJfnXvA-2" value="&lt;b&gt;NODE&lt;/b&gt;" style="rounded=1;whiteSpace=wrap;html=1;fillColor=#dae8fc;gradientColor=#7ea6e0;strokeColor=#6c8ebf;" vertex="1" parent="1">
          <mxGeometry x="650" y="70" width="120" height="60" as="geometry" />
        </mxCell>
        <mxCell id="JlN0RR8S-dvaQLJfnXvA-3" value="&lt;b&gt;NODE&lt;/b&gt;" style="rounded=1;whiteSpace=wrap;html=1;fillColor=#dae8fc;gradientColor=#7ea6e0;strokeColor=#6c8ebf;" vertex="1" parent="1">
          <mxGeometry x="650" y="190" width="120" height="60" as="geometry" />
        </mxCell>
        <mxCell id="JlN0RR8S-dvaQLJfnXvA-4" value="&lt;b&gt;NODE&lt;/b&gt;" style="rounded=1;whiteSpace=wrap;html=1;fillColor=#dae8fc;gradientColor=#7ea6e0;strokeColor=#6c8ebf;" vertex="1" parent="1">
          <mxGeometry x="650" y="330" width="120" height="60" as="geometry" />
        </mxCell>
        <mxCell id="JlN0RR8S-dvaQLJfnXvA-8" value="&lt;b&gt;Prometheus Server&lt;/b&gt;" style="text;html=1;align=center;verticalAlign=middle;resizable=0;points=[];autosize=1;strokeColor=none;fillColor=none;" vertex="1" parent="1">
          <mxGeometry x="255" y="110" width="130" height="30" as="geometry" />
        </mxCell>
        <mxCell id="JlN0RR8S-dvaQLJfnXvA-9" value="&lt;b&gt;node exporter&lt;/b&gt;" style="text;html=1;align=center;verticalAlign=middle;resizable=0;points=[];autosize=1;strokeColor=none;fillColor=none;" vertex="1" parent="1">
          <mxGeometry x="660" y="60" width="100" height="30" as="geometry" />
        </mxCell>
        <mxCell id="JlN0RR8S-dvaQLJfnXvA-10" value="&lt;b&gt;node exporter&lt;/b&gt;" style="text;html=1;align=center;verticalAlign=middle;resizable=0;points=[];autosize=1;strokeColor=none;fillColor=none;" vertex="1" parent="1">
          <mxGeometry x="660" y="190" width="100" height="30" as="geometry" />
        </mxCell>
        <mxCell id="JlN0RR8S-dvaQLJfnXvA-11" value="&lt;b&gt;node exporter&lt;/b&gt;" style="text;html=1;align=center;verticalAlign=middle;resizable=0;points=[];autosize=1;strokeColor=none;fillColor=none;" vertex="1" parent="1">
          <mxGeometry x="660" y="320" width="100" height="30" as="geometry" />
        </mxCell>
        <mxCell id="JlN0RR8S-dvaQLJfnXvA-12" value="&lt;b&gt;TSD&lt;/b&gt;" style="shape=cylinder3;whiteSpace=wrap;html=1;boundedLbl=1;backgroundOutline=1;size=15;fillColor=#f8cecc;gradientColor=#ea6b66;strokeColor=#b85450;" vertex="1" parent="1">
          <mxGeometry x="320" y="135" width="70" height="80" as="geometry" />
        </mxCell>
        <mxCell id="JlN0RR8S-dvaQLJfnXvA-14" style="edgeStyle=orthogonalEdgeStyle;rounded=0;orthogonalLoop=1;jettySize=auto;html=1;" edge="1" parent="1" source="JlN0RR8S-dvaQLJfnXvA-13" target="JlN0RR8S-dvaQLJfnXvA-12">
          <mxGeometry relative="1" as="geometry" />
        </mxCell>
        <mxCell id="JlN0RR8S-dvaQLJfnXvA-13" value="&lt;b&gt;HTTP&lt;/b&gt;" style="ellipse;whiteSpace=wrap;html=1;fillColor=#fff2cc;gradientColor=#ffd966;strokeColor=#d6b656;" vertex="1" parent="1">
          <mxGeometry x="150" y="145" width="100" height="60" as="geometry" />
        </mxCell>
        <mxCell id="JlN0RR8S-dvaQLJfnXvA-16" style="edgeStyle=orthogonalEdgeStyle;rounded=0;orthogonalLoop=1;jettySize=auto;html=1;entryX=0;entryY=0.5;entryDx=0;entryDy=0;flowAnimation=1;" edge="1" parent="1" source="JlN0RR8S-dvaQLJfnXvA-15" target="JlN0RR8S-dvaQLJfnXvA-13">
          <mxGeometry relative="1" as="geometry" />
        </mxCell>
        <mxCell id="JlN0RR8S-dvaQLJfnXvA-15" value="" style="html=1;verticalLabelPosition=bottom;align=center;labelBackgroundColor=#ffffff;verticalAlign=top;strokeWidth=2;strokeColor=#0080F0;shadow=0;dashed=0;shape=mxgraph.ios7.icons.user;" vertex="1" parent="1">
          <mxGeometry x="-20" y="150" width="60" height="50" as="geometry" />
        </mxCell>
        <mxCell id="JlN0RR8S-dvaQLJfnXvA-17" value="&lt;b&gt;Alert&amp;nbsp;&lt;/b&gt;&lt;div&gt;&lt;b&gt;Manager&lt;/b&gt;&lt;/div&gt;" style="ellipse;whiteSpace=wrap;html=1;aspect=fixed;fillColor=#e6d0de;gradientColor=#d5739d;strokeColor=#996185;" vertex="1" parent="1">
          <mxGeometry x="260" y="230" width="80" height="80" as="geometry" />
        </mxCell>
        <mxCell id="JlN0RR8S-dvaQLJfnXvA-18" value="&lt;b&gt;Service&amp;nbsp;&lt;/b&gt;&lt;div&gt;&lt;b&gt;Discovery&lt;/b&gt;&lt;/div&gt;" style="shape=parallelogram;perimeter=parallelogramPerimeter;whiteSpace=wrap;html=1;fixedSize=1;fillColor=#f5f5f5;gradientColor=#b3b3b3;strokeColor=#666666;" vertex="1" parent="1">
          <mxGeometry x="360" y="250" width="120" height="60" as="geometry" />
        </mxCell>
        <mxCell id="JlN0RR8S-dvaQLJfnXvA-20" style="edgeStyle=orthogonalEdgeStyle;rounded=0;orthogonalLoop=1;jettySize=auto;html=1;entryX=0.5;entryY=1;entryDx=0;entryDy=0;flowAnimation=1;" edge="1" parent="1" source="JlN0RR8S-dvaQLJfnXvA-19" target="JlN0RR8S-dvaQLJfnXvA-13">
          <mxGeometry relative="1" as="geometry" />
        </mxCell>
        <mxCell id="JlN0RR8S-dvaQLJfnXvA-19" value="&lt;b&gt;Grafana&lt;/b&gt;" style="whiteSpace=wrap;html=1;aspect=fixed;fillColor=#dae8fc;gradientColor=#7ea6e0;strokeColor=#6c8ebf;" vertex="1" parent="1">
          <mxGeometry x="160" y="230" width="80" height="80" as="geometry" />
        </mxCell>
        <mxCell id="JlN0RR8S-dvaQLJfnXvA-22" style="edgeStyle=orthogonalEdgeStyle;rounded=0;orthogonalLoop=1;jettySize=auto;html=1;entryX=0;entryY=0.5;entryDx=0;entryDy=0;flowAnimation=1;" edge="1" parent="1" source="JlN0RR8S-dvaQLJfnXvA-21" target="JlN0RR8S-dvaQLJfnXvA-19">
          <mxGeometry relative="1" as="geometry" />
        </mxCell>
        <mxCell id="JlN0RR8S-dvaQLJfnXvA-21" value="" style="html=1;verticalLabelPosition=bottom;align=center;labelBackgroundColor=#ffffff;verticalAlign=top;strokeWidth=2;strokeColor=#0080F0;shadow=0;dashed=0;shape=mxgraph.ios7.icons.user;" vertex="1" parent="1">
          <mxGeometry x="-20" y="242.5" width="70" height="55" as="geometry" />
        </mxCell>
      </root>
    </mxGraphModel>
  </diagram>
</mxfile>
